v -0.000000 1.000000 -1.000000
v -0.000000 -1.000000 -1.000000
v -0.098017 1.000000 -0.995185
v -0.098017 -1.000000 -0.995185
v -0.195090 1.000000 -0.980785
v -0.195090 -1.000000 -0.980785
v -0.290285 1.000000 -0.956940
v -0.290285 -1.000000 -0.956940
v -0.382683 1.000000 -0.923880
v -0.382683 -1.000000 -0.923880
v -0.471397 1.000000 -0.881921
v -0.471397 -1.000000 -0.881921
v -0.555570 1.000000 -0.831470
v -0.555570 -1.000000 -0.831470
v -0.634393 1.000000 -0.773010
v -0.634393 -1.000000 -0.773010
v -0.707107 1.000000 -0.707107
v -0.707107 -1.000000 -0.707107
v -0.773010 1.000000 -0.634393
v -0.773010 -1.000000 -0.634393
v -0.831470 1.000000 -0.555570
v -0.831470 -1.000000 -0.555570
v -0.881921 1.000000 -0.471397
v -0.881921 -1.000000 -0.471397
v -0.923880 1.000000 -0.382683
v -0.923880 -1.000000 -0.382683
v -0.956940 1.000000 -0.290285
v -0.956940 -1.000000 -0.290285
v -0.980785 1.000000 -0.195090
v -0.980785 -1.000000 -0.195090
v -0.995185 1.000000 -0.098017
v -0.995185 -1.000000 -0.098017
v -1.000000 1.000000 -0.000000
v -1.000000 -1.000000 -0.000000
v -0.995185 1.000000 0.098017
v -0.995185 -1.000000 0.098017
v -0.980785 1.000000 0.195090
v -0.980785 -1.000000 0.195090
v -0.956940 1.000000 0.290285
v -0.956940 -1.000000 0.290285
v -0.923880 1.000000 0.382683
v -0.923880 -1.000000 0.382683
v -0.881921 1.000000 0.471397
v -0.881921 -1.000000 0.471397
v -0.831470 1.000000 0.555570
v -0.831470 -1.000000 0.555570
v -0.773010 1.000000 0.634393
v -0.773010 -1.000000 0.634393
v -0.707107 1.000000 0.707107
v -0.707107 -1.000000 0.707107
v -0.634393 1.000000 0.773010
v -0.634393 -1.000000 0.773010
v -0.555570 1.000000 0.831470
v -0.555570 -1.000000 0.831470
v -0.471397 1.000000 0.881921
v -0.471397 -1.000000 0.881921
v -0.382683 1.000000 0.923880
v -0.382683 -1.000000 0.923880
v -0.290285 1.000000 0.956940
v -0.290285 -1.000000 0.956940
v -0.195090 1.000000 0.980785
v -0.195090 -1.000000 0.980785
v -0.098017 1.000000 0.995185
v -0.098017 -1.000000 0.995185
v -0.000000 1.000000 1.000000
v -0.000000 -1.000000 1.000000
v 0.098017 1.000000 0.995185
v 0.098017 -1.000000 0.995185
v 0.195090 1.000000 0.980785
v 0.195090 -1.000000 0.980785
v 0.290285 1.000000 0.956940
v 0.290285 -1.000000 0.956940
v 0.382683 1.000000 0.923880
v 0.382683 -1.000000 0.923880
v 0.471397 1.000000 0.881921
v 0.471397 -1.000000 0.881921
v 0.555570 1.000000 0.831470
v 0.555570 -1.000000 0.831470
v 0.634393 1.000000 0.773010
v 0.634393 -1.000000 0.773010
v 0.707107 1.000000 0.707107
v 0.707107 -1.000000 0.707107
v 0.773010 1.000000 0.634393
v 0.773010 -1.000000 0.634393
v 0.831470 1.000000 0.555570
v 0.831470 -1.000000 0.555570
v 0.881921 1.000000 0.471397
v 0.881921 -1.000000 0.471397
v 0.923880 1.000000 0.382683
v 0.923880 -1.000000 0.382683
v 0.956940 1.000000 0.290285
v 0.956940 -1.000000 0.290285
v 0.980785 1.000000 0.195090
v 0.980785 -1.000000 0.195090
v 0.995185 1.000000 0.098017
v 0.995185 -1.000000 0.098017
v 1.000000 1.000000 0.000000
v 1.000000 -1.000000 0.000000
v 0.995185 1.000000 -0.098017
v 0.995185 -1.000000 -0.098017
v 0.980785 1.000000 -0.195090
v 0.980785 -1.000000 -0.195090
v 0.956940 1.000000 -0.290285
v 0.956940 -1.000000 -0.290285
v 0.923880 1.000000 -0.382683
v 0.923880 -1.000000 -0.382683
v 0.881921 1.000000 -0.471397
v 0.881921 -1.000000 -0.471397
v 0.831470 1.000000 -0.555570
v 0.831470 -1.000000 -0.555570
v 0.773010 1.000000 -0.634393
v 0.773010 -1.000000 -0.634393
v 0.707107 1.000000 -0.707107
v 0.707107 -1.000000 -0.707107
v 0.634393 1.000000 -0.773010
v 0.634393 -1.000000 -0.773010
v 0.555570 1.000000 -0.831470
v 0.555570 -1.000000 -0.831470
v 0.471397 1.000000 -0.881921
v 0.471397 -1.000000 -0.881921
v 0.382683 1.000000 -0.923880
v 0.382683 -1.000000 -0.923880
v 0.290285 1.000000 -0.956940
v 0.290285 -1.000000 -0.956940
v 0.195090 1.000000 -0.980785
v 0.195090 -1.000000 -0.980785
v 0.098017 1.000000 -0.995185
v 0.098017 -1.000000 -0.995185
vn 0.000790 0.998834 -0.048272
vn -0.000790 -0.998834 -0.048272
vn -0.077508 0.316533 -0.945410
vn -0.108424 -0.316533 -0.942365
vn -0.148895 0.555111 -0.818341
vn -0.175608 -0.555112 -0.813027
vn -0.228385 0.555112 -0.799807
vn -0.254449 -0.555112 -0.791901
vn -0.305680 0.555112 -0.773570
vn -0.330847 -0.555112 -0.763146
vn -0.380034 0.555112 -0.739882
vn -0.404054 -0.555112 -0.727043
vn -0.450724 0.555112 -0.699070
vn -0.473374 -0.555112 -0.683936
vn -0.517076 0.555111 -0.651524
vn -0.538128 -0.555111 -0.634247
vn -0.578444 0.555112 -0.597707
vn -0.597707 -0.555112 -0.578444
vn -0.634247 0.555111 -0.538128
vn -0.651524 -0.555111 -0.517076
vn -0.683936 0.555112 -0.473374
vn -0.699070 -0.555112 -0.450724
vn -0.727043 0.555112 -0.404054
vn -0.739882 -0.555112 -0.380034
vn -0.763146 0.555112 -0.330847
vn -0.773570 -0.555112 -0.305680
vn -0.791901 0.555112 -0.254449
vn -0.799807 -0.555112 -0.228385
vn -0.813027 0.555112 -0.175608
vn -0.818341 -0.555112 -0.148895
vn -0.826325 0.555112 -0.095073
vn -0.828995 -0.555112 -0.067964
vn -0.831665 0.555112 -0.013618
vn -0.831665 -0.555112 0.013618
vn -0.828995 0.555112 0.067964
vn -0.826325 -0.555112 0.095073
vn -0.818341 0.555112 0.148895
vn -0.813027 -0.555112 0.175608
vn -0.799807 0.555112 0.228385
vn -0.791901 -0.555112 0.254449
vn -0.773570 0.555112 0.305680
vn -0.763146 -0.555112 0.330847
vn -0.739882 0.555112 0.380034
vn -0.727043 -0.555112 0.404054
vn -0.699070 0.555112 0.450724
vn -0.683936 -0.555112 0.473374
vn -0.651524 0.555111 0.517076
vn -0.634247 -0.555111 0.538128
vn -0.597707 0.555112 0.578444
vn -0.578444 -0.555112 0.597707
vn -0.538128 0.555112 0.634247
vn -0.517076 -0.555111 0.651524
vn -0.473374 0.555112 0.683936
vn -0.450724 -0.555112 0.699070
vn -0.404054 0.555112 0.727043
vn -0.380034 -0.555112 0.739882
vn -0.330847 0.555112 0.763146
vn -0.305680 -0.555112 0.773570
vn -0.254449 0.555112 0.791901
vn -0.228385 -0.555112 0.799807
vn -0.175608 0.555112 0.813027
vn -0.148895 -0.555112 0.818341
vn -0.095073 0.555112 0.826324
vn -0.067964 -0.555112 0.828995
vn -0.013618 0.555111 0.831665
vn 0.013618 -0.555111 0.831665
vn 0.067964 0.555112 0.828995
vn 0.095073 -0.555112 0.826324
vn 0.148895 0.555112 0.818341
vn 0.175608 -0.555112 0.813027
vn 0.228385 0.555112 0.799807
vn 0.254449 -0.555112 0.791901
vn 0.305680 0.555112 0.773570
vn 0.330847 -0.555112 0.763146
vn 0.380034 0.555112 0.739882
vn 0.404054 -0.555112 0.727043
vn 0.450724 0.555112 0.699070
vn 0.473374 -0.555112 0.683936
vn 0.517076 0.555111 0.651524
vn 0.538128 -0.555111 0.634247
vn 0.578444 0.555112 0.597707
vn 0.597707 -0.555112 0.578444
vn 0.634247 0.555111 0.538128
vn 0.651524 -0.555111 0.517076
vn 0.683936 0.555112 0.473374
vn 0.699070 -0.555112 0.450724
vn 0.727043 0.555112 0.404054
vn 0.739882 -0.555112 0.380034
vn 0.763146 0.555112 0.330847
vn 0.773570 -0.555112 0.305680
vn 0.791901 0.555112 0.254449
vn 0.799807 -0.555112 0.228385
vn 0.813027 0.555112 0.175608
vn 0.818341 -0.555112 0.148895
vn 0.826325 0.555112 0.095073
vn 0.828995 -0.555112 0.067964
vn 0.831665 0.555112 0.013618
vn 0.831665 -0.555112 -0.013618
vn 0.828995 0.555112 -0.067964
vn 0.826325 -0.555112 -0.095073
vn 0.818341 0.555112 -0.148895
vn 0.813027 -0.555112 -0.175608
vn 0.799807 0.555112 -0.228385
vn 0.791901 -0.555112 -0.254449
vn 0.773570 0.555112 -0.305680
vn 0.763146 -0.555112 -0.330847
vn 0.739882 0.555112 -0.380034
vn 0.727043 -0.555112 -0.404054
vn 0.699070 0.555112 -0.450724
vn 0.683936 -0.555112 -0.473374
vn 0.651524 0.555111 -0.517076
vn 0.634247 -0.555111 -0.538128
vn 0.597707 0.555112 -0.578444
vn 0.578444 -0.555112 -0.597707
vn 0.538128 0.555112 -0.634247
vn 0.517076 -0.555111 -0.651524
vn 0.473374 0.555112 -0.683936
vn 0.450724 -0.555112 -0.699070
vn 0.404054 0.555112 -0.727043
vn 0.380034 -0.555112 -0.739882
vn 0.330847 0.555112 -0.763146
vn 0.305680 -0.555112 -0.773570
vn 0.254449 0.555112 -0.791901
vn 0.228385 -0.555112 -0.799807
vn 0.175608 0.555112 -0.813027
vn 0.148895 -0.555112 -0.818341
vn 0.108424 0.316533 -0.942365
vn 0.077508 -0.316533 -0.945410
f 1//1 2//2 3//3
f 3//3 2//2 4//4
f 3//3 4//4 5//5
f 5//5 4//4 6//6
f 5//5 6//6 7//7
f 7//7 6//6 8//8
f 7//7 8//8 9//9
f 9//9 8//8 10//10
f 9//9 10//10 11//11
f 11//11 10//10 12//12
f 11//11 12//12 13//13
f 13//13 12//12 14//14
f 13//13 14//14 15//15
f 15//15 14//14 16//16
f 15//15 16//16 17//17
f 17//17 16//16 18//18
f 17//17 18//18 19//19
f 19//19 18//18 20//20
f 19//19 20//20 21//21
f 21//21 20//20 22//22
f 21//21 22//22 23//23
f 23//23 22//22 24//24
f 23//23 24//24 25//25
f 25//25 24//24 26//26
f 25//25 26//26 27//27
f 27//27 26//26 28//28
f 27//27 28//28 29//29
f 29//29 28//28 30//30
f 29//29 30//30 31//31
f 31//31 30//30 32//32
f 31//31 32//32 33//33
f 33//33 32//32 34//34
f 33//33 34//34 35//35
f 35//35 34//34 36//36
f 35//35 36//36 37//37
f 37//37 36//36 38//38
f 37//37 38//38 39//39
f 39//39 38//38 40//40
f 39//39 40//40 41//41
f 41//41 40//40 42//42
f 41//41 42//42 43//43
f 43//43 42//42 44//44
f 43//43 44//44 45//45
f 45//45 44//44 46//46
f 45//45 46//46 47//47
f 47//47 46//46 48//48
f 47//47 48//48 49//49
f 49//49 48//48 50//50
f 49//49 50//50 51//51
f 51//51 50//50 52//52
f 51//51 52//52 53//53
f 53//53 52//52 54//54
f 53//53 54//54 55//55
f 55//55 54//54 56//56
f 55//55 56//56 57//57
f 57//57 56//56 58//58
f 57//57 58//58 59//59
f 59//59 58//58 60//60
f 59//59 60//60 61//61
f 61//61 60//60 62//62
f 61//61 62//62 63//63
f 63//63 62//62 64//64
f 63//63 64//64 65//65
f 65//65 64//64 66//66
f 65//65 66//66 67//67
f 67//67 66//66 68//68
f 67//67 68//68 69//69
f 69//69 68//68 70//70
f 69//69 70//70 71//71
f 71//71 70//70 72//72
f 71//71 72//72 73//73
f 73//73 72//72 74//74
f 73//73 74//74 75//75
f 75//75 74//74 76//76
f 75//75 76//76 77//77
f 77//77 76//76 78//78
f 77//77 78//78 79//79
f 79//79 78//78 80//80
f 79//79 80//80 81//81
f 81//81 80//80 82//82
f 81//81 82//82 83//83
f 83//83 82//82 84//84
f 83//83 84//84 85//85
f 85//85 84//84 86//86
f 85//85 86//86 87//87
f 87//87 86//86 88//88
f 87//87 88//88 89//89
f 89//89 88//88 90//90
f 89//89 90//90 91//91
f 91//91 90//90 92//92
f 91//91 92//92 93//93
f 93//93 92//92 94//94
f 93//93 94//94 95//95
f 95//95 94//94 96//96
f 95//95 96//96 97//97
f 97//97 96//96 98//98
f 97//97 98//98 99//99
f 99//99 98//98 100//100
f 99//99 100//100 101//101
f 101//101 100//100 102//102
f 101//101 102//102 103//103
f 103//103 102//102 104//104
f 103//103 104//104 105//105
f 105//105 104//104 106//106
f 105//105 106//106 107//107
f 107//107 106//106 108//108
f 107//107 108//108 109//109
f 109//109 108//108 110//110
f 109//109 110//110 111//111
f 111//111 110//110 112//112
f 111//111 112//112 113//113
f 113//113 112//112 114//114
f 113//113 114//114 115//115
f 115//115 114//114 116//116
f 115//115 116//116 117//117
f 117//117 116//116 118//118
f 117//117 118//118 119//119
f 119//119 118//118 120//120
f 119//119 120//120 121//121
f 121//121 120//120 122//122
f 121//121 122//122 123//123
f 123//123 122//122 124//124
f 123//123 124//124 125//125
f 125//125 124//124 126//126
f 125//125 126//126 127//127
f 127//127 126//126 128//128
f 127//127 128//128 1//1
f 1//1 128//128 2//2
f 1//1 3//3 5//5
f 2//2 6//6 4//4
f 1//1 5//5 7//7
f 2//2 8//8 6//6
f 1//1 7//7 9//9
f 2//2 10//10 8//8
f 1//1 9//9 11//11
f 2//2 12//12 10//10
f 1//1 11//11 13//13
f 2//2 14//14 12//12
f 1//1 13//13 15//15
f 2//2 16//16 14//14
f 1//1 15//15 17//17
f 2//2 18//18 16//16
f 1//1 17//17 19//19
f 2//2 20//20 18//18
f 1//1 19//19 21//21
f 2//2 22//22 20//20
f 1//1 21//21 23//23
f 2//2 24//24 22//22
f 1//1 23//23 25//25
f 2//2 26//26 24//24
f 1//1 25//25 27//27
f 2//2 28//28 26//26
f 1//1 27//27 29//29
f 2//2 30//30 28//28
f 1//1 29//29 31//31
f 2//2 32//32 30//30
f 1//1 31//31 33//33
f 2//2 34//34 32//32
f 1//1 33//33 35//35
f 2//2 36//36 34//34
f 1//1 35//35 37//37
f 2//2 38//38 36//36
f 1//1 37//37 39//39
f 2//2 40//40 38//38
f 1//1 39//39 41//41
f 2//2 42//42 40//40
f 1//1 41//41 43//43
f 2//2 44//44 42//42
f 1//1 43//43 45//45
f 2//2 46//46 44//44
f 1//1 45//45 47//47
f 2//2 48//48 46//46
f 1//1 47//47 49//49
f 2//2 50//50 48//48
f 1//1 49//49 51//51
f 2//2 52//52 50//50
f 1//1 51//51 53//53
f 2//2 54//54 52//52
f 1//1 53//53 55//55
f 2//2 56//56 54//54
f 1//1 55//55 57//57
f 2//2 58//58 56//56
f 1//1 57//57 59//59
f 2//2 60//60 58//58
f 1//1 59//59 61//61
f 2//2 62//62 60//60
f 1//1 61//61 63//63
f 2//2 64//64 62//62
f 1//1 63//63 65//65
f 2//2 66//66 64//64
f 1//1 65//65 67//67
f 2//2 68//68 66//66
f 1//1 67//67 69//69
f 2//2 70//70 68//68
f 1//1 69//69 71//71
f 2//2 72//72 70//70
f 1//1 71//71 73//73
f 2//2 74//74 72//72
f 1//1 73//73 75//75
f 2//2 76//76 74//74
f 1//1 75//75 77//77
f 2//2 78//78 76//76
f 1//1 77//77 79//79
f 2//2 80//80 78//78
f 1//1 79//79 81//81
f 2//2 82//82 80//80
f 1//1 81//81 83//83
f 2//2 84//84 82//82
f 1//1 83//83 85//85
f 2//2 86//86 84//84
f 1//1 85//85 87//87
f 2//2 88//88 86//86
f 1//1 87//87 89//89
f 2//2 90//90 88//88
f 1//1 89//89 91//91
f 2//2 92//92 90//90
f 1//1 91//91 93//93
f 2//2 94//94 92//92
f 1//1 93//93 95//95
f 2//2 96//96 94//94
f 1//1 95//95 97//97
f 2//2 98//98 96//96
f 1//1 97//97 99//99
f 2//2 100//100 98//98
f 1//1 99//99 101//101
f 2//2 102//102 100//100
f 1//1 101//101 103//103
f 2//2 104//104 102//102
f 1//1 103//103 105//105
f 2//2 106//106 104//104
f 1//1 105//105 107//107
f 2//2 108//108 106//106
f 1//1 107//107 109//109
f 2//2 110//110 108//108
f 1//1 109//109 111//111
f 2//2 112//112 110//110
f 1//1 111//111 113//113
f 2//2 114//114 112//112
f 1//1 113//113 115//115
f 2//2 116//116 114//114
f 1//1 115//115 117//117
f 2//2 118//118 116//116
f 1//1 117//117 119//119
f 2//2 120//120 118//118
f 1//1 119//119 121//121
f 2//2 122//122 120//120
f 1//1 121//121 123//123
f 2//2 124//124 122//122
f 1//1 123//123 125//125
f 2//2 126//126 124//124
f 1//1 125//125 127//127
f 2//2 128//128 126//126
