v -0.000000 1.000000 -1.000000
v -0.000000 -1.000000 -1.000000
v -0.500000 1.000000 -0.866025
v -0.500000 -1.000000 -0.866025
v -0.866025 1.000000 -0.500000
v -0.866025 -1.000000 -0.500000
v -1.000000 1.000000 -0.000000
v -1.000000 -1.000000 -0.000000
v -0.866025 1.000000 0.500000
v -0.866025 -1.000000 0.500000
v -0.500000 1.000000 0.866025
v -0.500000 -1.000000 0.866025
v -0.000000 1.000000 1.000000
v -0.000000 -1.000000 1.000000
v 0.500000 1.000000 0.866025
v 0.500000 -1.000000 0.866025
v 0.866025 1.000000 0.500000
v 0.866025 -1.000000 0.500000
v 1.000000 1.000000 0.000000
v 1.000000 -1.000000 0.000000
v 0.866025 1.000000 -0.500000
v 0.866025 -1.000000 -0.500000
v 0.500000 1.000000 -0.866025
v 0.500000 -1.000000 -0.866025
v -0.000000 1.000000 -1.000000
v -0.000000 -1.000000 -1.000000
v -0.000000 1.000000 -1.000000
v -0.500000 1.000000 -0.866025
v -0.866025 1.000000 -0.500000
v -0.000000 -1.000000 -1.000000
v -0.866025 -1.000000 -0.500000
v -0.500000 -1.000000 -0.866025
v -1.000000 1.000000 -0.000000
v -1.000000 -1.000000 -0.000000
v -0.866025 1.000000 0.500000
v -0.866025 -1.000000 0.500000
v -0.500000 1.000000 0.866025
v -0.500000 -1.000000 0.866025
v -0.000000 1.000000 1.000000
v -0.000000 -1.000000 1.000000
v 0.500000 1.000000 0.866025
v 0.500000 -1.000000 0.866025
v 0.866025 1.000000 0.500000
v 0.866025 -1.000000 0.500000
v 1.000000 1.000000 0.000000
v 1.000000 -1.000000 0.000000
v 0.866025 1.000000 -0.500000
v 0.866025 -1.000000 -0.500000
v 0.500000 1.000000 -0.866025
v 0.500000 -1.000000 -0.866025
vn -0.258820 0.000000 -0.965926
vn -0.258820 0.000000 -0.965926
vn -0.420974 0.000000 -0.907073
vn -0.575061 0.000000 -0.818110
vn -0.818110 0.000000 -0.575061
vn -0.907073 0.000000 -0.420974
vn -0.996035 0.000000 -0.088963
vn -0.996035 0.000000 0.088963
vn -0.907073 0.000000 0.420974
vn -0.818110 0.000000 0.575061
vn -0.575061 0.000000 0.818110
vn -0.420974 0.000000 0.907073
vn -0.088963 0.000000 0.996035
vn 0.088963 0.000000 0.996035
vn 0.420974 0.000000 0.907073
vn 0.575061 0.000000 0.818110
vn 0.818110 0.000000 0.575061
vn 0.907073 0.000000 0.420974
vn 0.996035 0.000000 0.088963
vn 0.996035 0.000000 -0.088963
vn 0.907073 0.000000 -0.420974
vn 0.818110 0.000000 -0.575061
vn 0.575061 0.000000 -0.818110
vn 0.420974 0.000000 -0.907073
vn 0.258820 0.000000 -0.965926
vn 0.258820 0.000000 -0.965926
vn 0.000000 1.000000 0.000000
vn 0.000000 1.000000 0.000000
vn 0.000000 1.000000 0.000000
vn 0.000000 -1.000000 0.000000
vn 0.000000 -1.000000 0.000000
vn 0.000000 -1.000000 0.000000
vn 0.000000 1.000000 0.000000
vn 0.000000 -1.000000 0.000000
vn 0.000000 1.000000 0.000000
vn 0.000000 -1.000000 0.000000
vn 0.000000 1.000000 0.000000
vn 0.000000 -1.000000 0.000000
vn 0.000000 1.000000 0.000000
vn 0.000000 -1.000000 0.000000
vn 0.000000 1.000000 0.000000
vn 0.000000 -1.000000 0.000000
vn 0.000000 1.000000 0.000000
vn 0.000000 -1.000000 0.000000
vn 0.000000 1.000000 0.000000
vn 0.000000 -1.000000 0.000000
vn 0.000000 1.000000 0.000000
vn 0.000000 -1.000000 0.000000
vn 0.000000 1.000000 0.000000
vn 0.000000 -1.000000 0.000000
f 1//1 2//2 3//3
f 3//3 2//2 4//4
f 3//3 4//4 5//5
f 5//5 4//4 6//6
f 5//5 6//6 7//7
f 7//7 6//6 8//8
f 7//7 8//8 9//9
f 9//9 8//8 10//10
f 9//9 10//10 11//11
f 11//11 10//10 12//12
f 11//11 12//12 13//13
f 13//13 12//12 14//14
f 13//13 14//14 15//15
f 15//15 14//14 16//16
f 15//15 16//16 17//17
f 17//17 16//16 18//18
f 17//17 18//18 19//19
f 19//19 18//18 20//20
f 19//19 20//20 21//21
f 21//21 20//20 22//22
f 21//21 22//22 23//23
f 23//23 22//22 24//24
f 23//23 24//24 25//25
f 25//25 24//24 26//26
f 27//27 28//28 29//29
f 30//30 31//31 32//32
f 27//27 29//29 33//33
f 30//30 34//34 31//31
f 27//27 33//33 35//35
f 30//30 36//36 34//34
f 27//27 35//35 37//37
f 30//30 38//38 36//36
f 27//27 37//37 39//39
f 30//30 40//40 38//38
f 27//27 39//39 41//41
f 30//30 42//42 40//40
f 27//27 41//41 43//43
f 30//30 44//44 42//42
f 27//27 43//43 45//45
f 30//30 46//46 44//44
f 27//27 45//45 47//47
f 30//30 48//48 46//46
f 27//27 47//47 49//49
f 30//30 50//50 48//48
