v -0.000000 1.000000 -1.000000
v -0.000000 -1.000000 -1.000000
v -0.098017 1.000000 -0.995185
v -0.098017 -1.000000 -0.995185
v -0.195090 1.000000 -0.980785
v -0.195090 -1.000000 -0.980785
v -0.290285 1.000000 -0.956940
v -0.290285 -1.000000 -0.956940
v -0.382683 1.000000 -0.923880
v -0.382683 -1.000000 -0.923880
v -0.471397 1.000000 -0.881921
v -0.471397 -1.000000 -0.881921
v -0.555570 1.000000 -0.831470
v -0.555570 -1.000000 -0.831470
v -0.634393 1.000000 -0.773010
v -0.634393 -1.000000 -0.773010
v -0.707107 1.000000 -0.707107
v -0.707107 -1.000000 -0.707107
v -0.773010 1.000000 -0.634393
v -0.773010 -1.000000 -0.634393
v -0.831470 1.000000 -0.555570
v -0.831470 -1.000000 -0.555570
v -0.881921 1.000000 -0.471397
v -0.881921 -1.000000 -0.471397
v -0.923880 1.000000 -0.382683
v -0.923880 -1.000000 -0.382683
v -0.956940 1.000000 -0.290285
v -0.956940 -1.000000 -0.290285
v -0.980785 1.000000 -0.195090
v -0.980785 -1.000000 -0.195090
v -0.995185 1.000000 -0.098017
v -0.995185 -1.000000 -0.098017
v -1.000000 1.000000 -0.000000
v -1.000000 -1.000000 -0.000000
v -0.995185 1.000000 0.098017
v -0.995185 -1.000000 0.098017
v -0.980785 1.000000 0.195090
v -0.980785 -1.000000 0.195090
v -0.956940 1.000000 0.290285
v -0.956940 -1.000000 0.290285
v -0.923880 1.000000 0.382683
v -0.923880 -1.000000 0.382683
v -0.881921 1.000000 0.471397
v -0.881921 -1.000000 0.471397
v -0.831470 1.000000 0.555570
v -0.831470 -1.000000 0.555570
v -0.773010 1.000000 0.634393
v -0.773010 -1.000000 0.634393
v -0.707107 1.000000 0.707107
v -0.707107 -1.000000 0.707107
v -0.634393 1.000000 0.773010
v -0.634393 -1.000000 0.773010
v -0.555570 1.000000 0.831470
v -0.555570 -1.000000 0.831470
v -0.471397 1.000000 0.881921
v -0.471397 -1.000000 0.881921
v -0.382683 1.000000 0.923880
v -0.382683 -1.000000 0.923880
v -0.290285 1.000000 0.956940
v -0.290285 -1.000000 0.956940
v -0.195090 1.000000 0.980785
v -0.195090 -1.000000 0.980785
v -0.098017 1.000000 0.995185
v -0.098017 -1.000000 0.995185
v -0.000000 1.000000 1.000000
v -0.000000 -1.000000 1.000000
v 0.098017 1.000000 0.995185
v 0.098017 -1.000000 0.995185
v 0.195090 1.000000 0.980785
v 0.195090 -1.000000 0.980785
v 0.290285 1.000000 0.956940
v 0.290285 -1.000000 0.956940
v 0.382683 1.000000 0.923880
v 0.382683 -1.000000 0.923880
v 0.471397 1.000000 0.881921
v 0.471397 -1.000000 0.881921
v 0.555570 1.000000 0.831470
v 0.555570 -1.000000 0.831470
v 0.634393 1.000000 0.773010
v 0.634393 -1.000000 0.773010
v 0.707107 1.000000 0.707107
v 0.707107 -1.000000 0.707107
v 0.773010 1.000000 0.634393
v 0.773010 -1.000000 0.634393
v 0.831470 1.000000 0.555570
v 0.831470 -1.000000 0.555570
v 0.881921 1.000000 0.471397
v 0.881921 -1.000000 0.471397
v 0.923880 1.000000 0.382683
v 0.923880 -1.000000 0.382683
v 0.956940 1.000000 0.290285
v 0.956940 -1.000000 0.290285
v 0.980785 1.000000 0.195090
v 0.980785 -1.000000 0.195090
v 0.995185 1.000000 0.098017
v 0.995185 -1.000000 0.098017
v 1.000000 1.000000 0.000000
v 1.000000 -1.000000 0.000000
v 0.995185 1.000000 -0.098017
v 0.995185 -1.000000 -0.098017
v 0.980785 1.000000 -0.195090
v 0.980785 -1.000000 -0.195090
v 0.956940 1.000000 -0.290285
v 0.956940 -1.000000 -0.290285
v 0.923880 1.000000 -0.382683
v 0.923880 -1.000000 -0.382683
v 0.881921 1.000000 -0.471397
v 0.881921 -1.000000 -0.471397
v 0.831470 1.000000 -0.555570
v 0.831470 -1.000000 -0.555570
v 0.773010 1.000000 -0.634393
v 0.773010 -1.000000 -0.634393
v 0.707107 1.000000 -0.707107
v 0.707107 -1.000000 -0.707107
v 0.634393 1.000000 -0.773010
v 0.634393 -1.000000 -0.773010
v 0.555570 1.000000 -0.831470
v 0.555570 -1.000000 -0.831470
v 0.471397 1.000000 -0.881921
v 0.471397 -1.000000 -0.881921
v 0.382683 1.000000 -0.923880
v 0.382683 -1.000000 -0.923880
v 0.290285 1.000000 -0.956940
v 0.290285 -1.000000 -0.956940
v 0.195090 1.000000 -0.980785
v 0.195090 -1.000000 -0.980785
v 0.098017 1.000000 -0.995185
v 0.098017 -1.000000 -0.995185
v -0.000000 1.000000 -1.000000
v -0.000000 -1.000000 -1.000000
v -0.000000 1.000000 -1.000000
v -0.098017 1.000000 -0.995185
v -0.195090 1.000000 -0.980785
v -0.000000 -1.000000 -1.000000
v -0.195090 -1.000000 -0.980785
v -0.098017 -1.000000 -0.995185
v -0.290285 1.000000 -0.956940
v -0.290285 -1.000000 -0.956940
v -0.382683 1.000000 -0.923880
v -0.382683 -1.000000 -0.923880
v -0.471397 1.000000 -0.881921
v -0.471397 -1.000000 -0.881921
v -0.555570 1.000000 -0.831470
v -0.555570 -1.000000 -0.831470
v -0.634393 1.000000 -0.773010
v -0.634393 -1.000000 -0.773010
v -0.707107 1.000000 -0.707107
v -0.707107 -1.000000 -0.707107
v -0.773010 1.000000 -0.634393
v -0.773010 -1.000000 -0.634393
v -0.831470 1.000000 -0.555570
v -0.831470 -1.000000 -0.555570
v -0.881921 1.000000 -0.471397
v -0.881921 -1.000000 -0.471397
v -0.923880 1.000000 -0.382683
v -0.923880 -1.000000 -0.382683
v -0.956940 1.000000 -0.290285
v -0.956940 -1.000000 -0.290285
v -0.980785 1.000000 -0.195090
v -0.980785 -1.000000 -0.195090
v -0.995185 1.000000 -0.098017
v -0.995185 -1.000000 -0.098017
v -1.000000 1.000000 -0.000000
v -1.000000 -1.000000 -0.000000
v -0.995185 1.000000 0.098017
v -0.995185 -1.000000 0.098017
v -0.980785 1.000000 0.195090
v -0.980785 -1.000000 0.195090
v -0.956940 1.000000 0.290285
v -0.956940 -1.000000 0.290285
v -0.923880 1.000000 0.382683
v -0.923880 -1.000000 0.382683
v -0.881921 1.000000 0.471397
v -0.881921 -1.000000 0.471397
v -0.831470 1.000000 0.555570
v -0.831470 -1.000000 0.555570
v -0.773010 1.000000 0.634393
v -0.773010 -1.000000 0.634393
v -0.707107 1.000000 0.707107
v -0.707107 -1.000000 0.707107
v -0.634393 1.000000 0.773010
v -0.634393 -1.000000 0.773010
v -0.555570 1.000000 0.831470
v -0.555570 -1.000000 0.831470
v -0.471397 1.000000 0.881921
v -0.471397 -1.000000 0.881921
v -0.382683 1.000000 0.923880
v -0.382683 -1.000000 0.923880
v -0.290285 1.000000 0.956940
v -0.290285 -1.000000 0.956940
v -0.195090 1.000000 0.980785
v -0.195090 -1.000000 0.980785
v -0.098017 1.000000 0.995185
v -0.098017 -1.000000 0.995185
v -0.000000 1.000000 1.000000
v -0.000000 -1.000000 1.000000
v 0.098017 1.000000 0.995185
v 0.098017 -1.000000 0.995185
v 0.195090 1.000000 0.980785
v 0.195090 -1.000000 0.980785
v 0.290285 1.000000 0.956940
v 0.290285 -1.000000 0.956940
v 0.382683 1.000000 0.923880
v 0.382683 -1.000000 0.923880
v 0.471397 1.000000 0.881921
v 0.471397 -1.000000 0.881921
v 0.555570 1.000000 0.831470
v 0.555570 -1.000000 0.831470
v 0.634393 1.000000 0.773010
v 0.634393 -1.000000 0.773010
v 0.707107 1.000000 0.707107
v 0.707107 -1.000000 0.707107
v 0.773010 1.000000 0.634393
v 0.773010 -1.000000 0.634393
v 0.831470 1.000000 0.555570
v 0.831470 -1.000000 0.555570
v 0.881921 1.000000 0.471397
v 0.881921 -1.000000 0.471397
v 0.923880 1.000000 0.382683
v 0.923880 -1.000000 0.382683
v 0.956940 1.000000 0.290285
v 0.956940 -1.000000 0.290285
v 0.980785 1.000000 0.195090
v 0.980785 -1.000000 0.195090
v 0.995185 1.000000 0.098017
v 0.995185 -1.000000 0.098017
v 1.000000 1.000000 0.000000
v 1.000000 -1.000000 0.000000
v 0.995185 1.000000 -0.098017
v 0.995185 -1.000000 -0.098017
v 0.980785 1.000000 -0.195090
v 0.980785 -1.000000 -0.195090
v 0.956940 1.000000 -0.290285
v 0.956940 -1.000000 -0.290285
v 0.923880 1.000000 -0.382683
v 0.923880 -1.000000 -0.382683
v 0.881921 1.000000 -0.471397
v 0.881921 -1.000000 -0.471397
v 0.831470 1.000000 -0.555570
v 0.831470 -1.000000 -0.555570
v 0.773010 1.000000 -0.634393
v 0.773010 -1.000000 -0.634393
v 0.707107 1.000000 -0.707107
v 0.707107 -1.000000 -0.707107
v 0.634393 1.000000 -0.773010
v 0.634393 -1.000000 -0.773010
v 0.555570 1.000000 -0.831470
v 0.555570 -1.000000 -0.831470
v 0.471397 1.000000 -0.881921
v 0.471397 -1.000000 -0.881921
v 0.382683 1.000000 -0.923880
v 0.382683 -1.000000 -0.923880
v 0.290285 1.000000 -0.956940
v 0.290285 -1.000000 -0.956940
v 0.195090 1.000000 -0.980785
v 0.195090 -1.000000 -0.980785
v 0.098017 1.000000 -0.995185
v 0.098017 -1.000000 -0.995185
vn -0.049065 0.000000 -0.998796
vn -0.049065 0.000000 -0.998796
vn -0.081709 0.000000 -0.996656
vn -0.114302 0.000000 -0.993446
vn -0.179009 0.000000 -0.983847
vn -0.211124 0.000000 -0.977459
vn -0.274575 0.000000 -0.961566
vn -0.305911 0.000000 -0.952060
vn -0.367503 0.000000 -0.930022
vn -0.397760 0.000000 -0.917490
vn -0.456895 0.000000 -0.889521
vn -0.485773 0.000000 -0.874085
vn -0.541882 0.000000 -0.840455
vn -0.569113 0.000000 -0.822259
vn -0.621653 0.000000 -0.783293
vn -0.646962 0.000000 -0.762522
vn -0.695432 0.000000 -0.718592
vn -0.718592 0.000000 -0.695432
vn -0.762522 0.000000 -0.646963
vn -0.783293 0.000000 -0.621653
vn -0.822259 0.000000 -0.569113
vn -0.840455 0.000000 -0.541882
vn -0.874085 0.000000 -0.485773
vn -0.889521 0.000000 -0.456895
vn -0.917490 0.000000 -0.397760
vn -0.930022 0.000000 -0.367503
vn -0.952060 0.000000 -0.305911
vn -0.961566 0.000000 -0.274575
vn -0.977459 0.000000 -0.211124
vn -0.983847 0.000000 -0.179009
vn -0.993446 0.000000 -0.114302
vn -0.996656 0.000000 -0.081709
vn -0.999866 0.000000 -0.016372
vn -0.999866 0.000000 0.016372
vn -0.996656 0.000000 0.081709
vn -0.993446 0.000000 0.114302
vn -0.983847 0.000000 0.179009
vn -0.977459 0.000000 0.211124
vn -0.961566 0.000000 0.274575
vn -0.952060 0.000000 0.305911
vn -0.930022 0.000000 0.367503
vn -0.917490 0.000000 0.397760
vn -0.889521 0.000000 0.456895
vn -0.874085 0.000000 0.485773
vn -0.840455 0.000000 0.541882
vn -0.822259 0.000000 0.569113
vn -0.783293 0.000000 0.621653
vn -0.762522 0.000000 0.646962
vn -0.718592 0.000000 0.695432
vn -0.695432 0.000000 0.718592
vn -0.646963 0.000000 0.762522
vn -0.621653 0.000000 0.783293
vn -0.569113 0.000000 0.822259
vn -0.541882 0.000000 0.840455
vn -0.485773 0.000000 0.874085
vn -0.456895 0.000000 0.889521
vn -0.397760 0.000000 0.917490
vn -0.367503 0.000000 0.930022
vn -0.305911 0.000000 0.952060
vn -0.274575 0.000000 0.961566
vn -0.211124 0.000000 0.977459
vn -0.179009 0.000000 0.983847
vn -0.114302 0.000000 0.993446
vn -0.081709 0.000000 0.996656
vn -0.016372 0.000000 0.999866
vn 0.016372 0.000000 0.999866
vn 0.081709 0.000000 0.996656
vn 0.114302 0.000000 0.993446
vn 0.179009 0.000000 0.983847
vn 0.211124 0.000000 0.977459
vn 0.274575 0.000000 0.961566
vn 0.305911 0.000000 0.952060
vn 0.367503 0.000000 0.930022
vn 0.397760 0.000000 0.917490
vn 0.456895 0.000000 0.889521
vn 0.485773 0.000000 0.874085
vn 0.541882 0.000000 0.840455
vn 0.569113 0.000000 0.822259
vn 0.621653 0.000000 0.783293
vn 0.646962 0.000000 0.762522
vn 0.695432 0.000000 0.718592
vn 0.718592 0.000000 0.695432
vn 0.762522 0.000000 0.646963
vn 0.783293 0.000000 0.621653
vn 0.822259 0.000000 0.569113
vn 0.840455 0.000000 0.541882
vn 0.874085 0.000000 0.485773
vn 0.889521 0.000000 0.456895
vn 0.917490 0.000000 0.397760
vn 0.930022 0.000000 0.367503
vn 0.952060 0.000000 0.305911
vn 0.961566 0.000000 0.274575
vn 0.977459 0.000000 0.211124
vn 0.983847 0.000000 0.179009
vn 0.993446 0.000000 0.114302
vn 0.996656 0.000000 0.081709
vn 0.999866 0.000000 0.016372
vn 0.999866 0.000000 -0.016372
vn 0.996656 0.000000 -0.081709
vn 0.993446 0.000000 -0.114302
vn 0.983847 0.000000 -0.179009
vn 0.977459 0.000000 -0.211124
vn 0.961566 0.000000 -0.274575
vn 0.952060 0.000000 -0.305911
vn 0.930022 0.000000 -0.367503
vn 0.917490 0.000000 -0.397760
vn 0.889521 0.000000 -0.456895
vn 0.874085 0.000000 -0.485773
vn 0.840455 0.000000 -0.541882
vn 0.822259 0.000000 -0.569113
vn 0.783293 0.000000 -0.621653
vn 0.762522 0.000000 -0.646962
vn 0.718592 0.000000 -0.695432
vn 0.695432 0.000000 -0.718592
vn 0.646963 0.000000 -0.762522
vn 0.621653 0.000000 -0.783293
vn 0.569113 0.000000 -0.822259
vn 0.541882 0.000000 -0.840455
vn 0.485773 0.000000 -0.874085
vn 0.456895 0.000000 -0.889521
vn 0.397760 0.000000 -0.917490
vn 0.367503 0.000000 -0.930022
vn 0.305911 0.000000 -0.952060
vn 0.274575 0.000000 -0.961566
vn 0.211124 0.000000 -0.977459
vn 0.179009 0.000000 -0.983847
vn 0.114302 0.000000 -0.993446
vn 0.081709 0.000000 -0.996656
vn 0.049065 0.000000 -0.998796
vn 0.049065 0.000000 -0.998796
vn 0.000000 1.000000 0.000000
vn 0.000000 1.000000 0.000000
vn 0.000000 1.000000 0.000000
vn 0.000000 -1.000000 0.000000
vn 0.000000 -1.000000 0.000000
vn 0.000000 -1.000000 0.000000
vn 0.000000 1.000000 0.000000
vn 0.000000 -1.000000 0.000000
vn 0.000000 1.000000 0.000000
vn 0.000000 -1.000000 0.000000
vn 0.000000 1.000000 0.000000
vn 0.000000 -1.000000 0.000000
vn 0.000000 1.000000 0.000000
vn 0.000000 -1.000000 0.000000
vn 0.000000 1.000000 0.000000
vn 0.000000 -1.000000 0.000000
vn 0.000000 1.000000 0.000000
vn 0.000000 -1.000000 0.000000
vn 0.000000 1.000000 0.000000
vn 0.000000 -1.000000 0.000000
vn 0.000000 1.000000 0.000000
vn 0.000000 -1.000000 0.000000
vn 0.000000 1.000000 0.000000
vn 0.000000 -1.000000 0.000000
vn 0.000000 1.000000 0.000000
vn 0.000000 -1.000000 0.000000
vn 0.000000 1.000000 0.000000
vn 0.000000 -1.000000 0.000000
vn 0.000000 1.000000 0.000000
vn 0.000000 -1.000000 0.000000
vn 0.000000 1.000000 0.000000
vn 0.000000 -1.000000 0.000000
vn 0.000000 1.000000 0.000000
vn 0.000000 -1.000000 0.000000
vn 0.000000 1.000000 0.000000
vn 0.000000 -1.000000 0.000000
vn 0.000000 1.000000 0.000000
vn 0.000000 -1.000000 0.000000
vn 0.000000 1.000000 0.000000
vn 0.000000 -1.000000 0.000000
vn 0.000000 1.000000 0.000000
vn 0.000000 -1.000000 0.000000
vn 0.000000 1.000000 0.000000
vn 0.000000 -1.000000 0.000000
vn 0.000000 1.000000 0.000000
vn 0.000000 -1.000000 0.000000
vn 0.000000 1.000000 0.000000
vn 0.000000 -1.000000 0.000000
vn 0.000000 1.000000 0.000000
vn 0.000000 -1.000000 0.000000
vn 0.000000 1.000000 0.000000
vn 0.000000 -1.000000 0.000000
vn 0.000000 1.000000 0.000000
vn 0.000000 -1.000000 0.000000
vn 0.000000 1.000000 0.000000
vn 0.000000 -1.000000 0.000000
vn 0.000000 1.000000 0.000000
vn 0.000000 -1.000000 0.000000
vn 0.000000 1.000000 0.000000
vn 0.000000 -1.000000 0.000000
vn 0.000000 1.000000 0.000000
vn 0.000000 -1.000000 0.000000
vn 0.000000 1.000000 0.000000
vn 0.000000 -1.000000 0.000000
vn 0.000000 1.000000 0.000000
vn 0.000000 -1.000000 0.000000
vn 0.000000 1.000000 0.000000
vn 0.000000 -1.000000 0.000000
vn 0.000000 1.000000 0.000000
vn 0.000000 -1.000000 0.000000
vn 0.000000 1.000000 0.000000
vn 0.000000 -1.000000 0.000000
vn 0.000000 1.000000 0.000000
vn 0.000000 -1.000000 0.000000
vn 0.000000 1.000000 0.000000
vn 0.000000 -1.000000 0.000000
vn 0.000000 1.000000 0.000000
vn 0.000000 -1.000000 0.000000
vn 0.000000 1.000000 0.000000
vn 0.000000 -1.000000 0.000000
vn 0.000000 1.000000 0.000000
vn 0.000000 -1.000000 0.000000
vn 0.000000 1.000000 0.000000
vn 0.000000 -1.000000 0.000000
vn 0.000000 1.000000 0.000000
vn 0.000000 -1.000000 0.000000
vn 0.000000 1.000000 0.000000
vn 0.000000 -1.000000 0.000000
vn 0.000000 1.000000 0.000000
vn 0.000000 -1.000000 0.000000
vn 0.000000 1.000000 0.000000
vn 0.000000 -1.000000 0.000000
vn 0.000000 1.000000 0.000000
vn 0.000000 -1.000000 0.000000
vn 0.000000 1.000000 0.000000
vn 0.000000 -1.000000 0.000000
vn 0.000000 1.000000 0.000000
vn 0.000000 -1.000000 0.000000
vn 0.000000 1.000000 0.000000
vn 0.000000 -1.000000 0.000000
vn 0.000000 1.000000 0.000000
vn 0.000000 -1.000000 0.000000
vn 0.000000 1.000000 0.000000
vn 0.000000 -1.000000 0.000000
vn 0.000000 1.000000 0.000000
vn 0.000000 -1.000000 0.000000
vn 0.000000 1.000000 0.000000
vn 0.000000 -1.000000 0.000000
vn 0.000000 1.000000 0.000000
vn 0.000000 -1.000000 0.000000
vn 0.000000 1.000000 0.000000
vn 0.000000 -1.000000 0.000000
vn 0.000000 1.000000 0.000000
vn 0.000000 -1.000000 0.000000
vn 0.000000 1.000000 0.000000
vn 0.000000 -1.000000 0.000000
vn 0.000000 1.000000 0.000000
vn 0.000000 -1.000000 0.000000
vn 0.000000 1.000000 0.000000
vn 0.000000 -1.000000 0.000000
vn 0.000000 1.000000 0.000000
vn 0.000000 -1.000000 0.000000
vn 0.000000 1.000000 0.000000
vn 0.000000 -1.000000 0.000000
vn 0.000000 1.000000 0.000000
vn 0.000000 -1.000000 0.000000
vn 0.000000 1.000000 0.000000
vn 0.000000 -1.000000 0.000000
f 1//1 2//2 3//3
f 3//3 2//2 4//4
f 3//3 4//4 5//5
f 5//5 4//4 6//6
f 5//5 6//6 7//7
f 7//7 6//6 8//8
f 7//7 8//8 9//9
f 9//9 8//8 10//10
f 9//9 10//10 11//11
f 11//11 10//10 12//12
f 11//11 12//12 13//13
f 13//13 12//12 14//14
f 13//13 14//14 15//15
f 15//15 14//14 16//16
f 15//15 16//16 17//17
f 17//17 16//16 18//18
f 17//17 18//18 19//19
f 19//19 18//18 20//20
f 19//19 20//20 21//21
f 21//21 20//20 22//22
f 21//21 22//22 23//23
f 23//23 22//22 24//24
f 23//23 24//24 25//25
f 25//25 24//24 26//26
f 25//25 26//26 27//27
f 27//27 26//26 28//28
f 27//27 28//28 29//29
f 29//29 28//28 30//30
f 29//29 30//30 31//31
f 31//31 30//30 32//32
f 31//31 32//32 33//33
f 33//33 32//32 34//34
f 33//33 34//34 35//35
f 35//35 34//34 36//36
f 35//35 36//36 37//37
f 37//37 36//36 38//38
f 37//37 38//38 39//39
f 39//39 38//38 40//40
f 39//39 40//40 41//41
f 41//41 40//40 42//42
f 41//41 42//42 43//43
f 43//43 42//42 44//44
f 43//43 44//44 45//45
f 45//45 44//44 46//46
f 45//45 46//46 47//47
f 47//47 46//46 48//48
f 47//47 48//48 49//49
f 49//49 48//48 50//50
f 49//49 50//50 51//51
f 51//51 50//50 52//52
f 51//51 52//52 53//53
f 53//53 52//52 54//54
f 53//53 54//54 55//55
f 55//55 54//54 56//56
f 55//55 56//56 57//57
f 57//57 56//56 58//58
f 57//57 58//58 59//59
f 59//59 58//58 60//60
f 59//59 60//60 61//61
f 61//61 60//60 62//62
f 61//61 62//62 63//63
f 63//63 62//62 64//64
f 63//63 64//64 65//65
f 65//65 64//64 66//66
f 65//65 66//66 67//67
f 67//67 66//66 68//68
f 67//67 68//68 69//69
f 69//69 68//68 70//70
f 69//69 70//70 71//71
f 71//71 70//70 72//72
f 71//71 72//72 73//73
f 73//73 72//72 74//74
f 73//73 74//74 75//75
f 75//75 74//74 76//76
f 75//75 76//76 77//77
f 77//77 76//76 78//78
f 77//77 78//78 79//79
f 79//79 78//78 80//80
f 79//79 80//80 81//81
f 81//81 80//80 82//82
f 81//81 82//82 83//83
f 83//83 82//82 84//84
f 83//83 84//84 85//85
f 85//85 84//84 86//86
f 85//85 86//86 87//87
f 87//87 86//86 88//88
f 87//87 88//88 89//89
f 89//89 88//88 90//90
f 89//89 90//90 91//91
f 91//91 90//90 92//92
f 91//91 92//92 93//93
f 93//93 92//92 94//94
f 93//93 94//94 95//95
f 95//95 94//94 96//96
f 95//95 96//96 97//97
f 97//97 96//96 98//98
f 97//97 98//98 99//99
f 99//99 98//98 100//100
f 99//99 100//100 101//101
f 101//101 100//100 102//102
f 101//101 102//102 103//103
f 103//103 102//102 104//104
f 103//103 104//104 105//105
f 105//105 104//104 106//106
f 105//105 106//106 107//107
f 107//107 106//106 108//108
f 107//107 108//108 109//109
f 109//109 108//108 110//110
f 109//109 110//110 111//111
f 111//111 110//110 112//112
f 111//111 112//112 113//113
f 113//113 112//112 114//114
f 113//113 114//114 115//115
f 115//115 114//114 116//116
f 115//115 116//116 117//117
f 117//117 116//116 118//118
f 117//117 118//118 119//119
f 119//119 118//118 120//120
f 119//119 120//120 121//121
f 121//121 120//120 122//122
f 121//121 122//122 123//123
f 123//123 122//122 124//124
f 123//123 124//124 125//125
f 125//125 124//124 126//126
f 125//125 126//126 127//127
f 127//127 126//126 128//128
f 127//127 128//128 129//129
f 129//129 128//128 130//130
f 131//131 132//132 133//133
f 134//134 135//135 136//136
f 131//131 133//133 137//137
f 134//134 138//138 135//135
f 131//131 137//137 139//139
f 134//134 140//140 138//138
f 131//131 139//139 141//141
f 134//134 142//142 140//140
f 131//131 141//141 143//143
f 134//134 144//144 142//142
f 131//131 143//143 145//145
f 134//134 146//146 144//144
f 131//131 145//145 147//147
f 134//134 148//148 146//146
f 131//131 147//147 149//149
f 134//134 150//150 148//148
f 131//131 149//149 151//151
f 134//134 152//152 150//150
f 131//131 151//151 153//153
f 134//134 154//154 152//152
f 131//131 153//153 155//155
f 134//134 156//156 154//154
f 131//131 155//155 157//157
f 134//134 158//158 156//156
f 131//131 157//157 159//159
f 134//134 160//160 158//158
f 131//131 159//159 161//161
f 134//134 162//162 160//160
f 131//131 161//161 163//163
f 134//134 164//164 162//162
f 131//131 163//163 165//165
f 134//134 166//166 164//164
f 131//131 165//165 167//167
f 134//134 168//168 166//166
f 131//131 167//167 169//169
f 134//134 170//170 168//168
f 131//131 169//169 171//171
f 134//134 172//172 170//170
f 131//131 171//171 173//173
f 134//134 174//174 172//172
f 131//131 173//173 175//175
f 134//134 176//176 174//174
f 131//131 175//175 177//177
f 134//134 178//178 176//176
f 131//131 177//177 179//179
f 134//134 180//180 178//178
f 131//131 179//179 181//181
f 134//134 182//182 180//180
f 131//131 181//181 183//183
f 134//134 184//184 182//182
f 131//131 183//183 185//185
f 134//134 186//186 184//184
f 131//131 185//185 187//187
f 134//134 188//188 186//186
f 131//131 187//187 189//189
f 134//134 190//190 188//188
f 131//131 189//189 191//191
f 134//134 192//192 190//190
f 131//131 191//191 193//193
f 134//134 194//194 192//192
f 131//131 193//193 195//195
f 134//134 196//196 194//194
f 131//131 195//195 197//197
f 134//134 198//198 196//196
f 131//131 197//197 199//199
f 134//134 200//200 198//198
f 131//131 199//199 201//201
f 134//134 202//202 200//200
f 131//131 201//201 203//203
f 134//134 204//204 202//202
f 131//131 203//203 205//205
f 134//134 206//206 204//204
f 131//131 205//205 207//207
f 134//134 208//208 206//206
f 131//131 207//207 209//209
f 134//134 210//210 208//208
f 131//131 209//209 211//211
f 134//134 212//212 210//210
f 131//131 211//211 213//213
f 134//134 214//214 212//212
f 131//131 213//213 215//215
f 134//134 216//216 214//214
f 131//131 215//215 217//217
f 134//134 218//218 216//216
f 131//131 217//217 219//219
f 134//134 220//220 218//218
f 131//131 219//219 221//221
f 134//134 222//222 220//220
f 131//131 221//221 223//223
f 134//134 224//224 222//222
f 131//131 223//223 225//225
f 134//134 226//226 224//224
f 131//131 225//225 227//227
f 134//134 228//228 226//226
f 131//131 227//227 229//229
f 134//134 230//230 228//228
f 131//131 229//229 231//231
f 134//134 232//232 230//230
f 131//131 231//231 233//233
f 134//134 234//234 232//232
f 131//131 233//233 235//235
f 134//134 236//236 234//234
f 131//131 235//235 237//237
f 134//134 238//238 236//236
f 131//131 237//237 239//239
f 134//134 240//240 238//238
f 131//131 239//239 241//241
f 134//134 242//242 240//240
f 131//131 241//241 243//243
f 134//134 244//244 242//242
f 131//131 243//243 245//245
f 134//134 246//246 244//244
f 131//131 245//245 247//247
f 134//134 248//248 246//246
f 131//131 247//247 249//249
f 134//134 250//250 248//248
f 131//131 249//249 251//251
f 134//134 252//252 250//250
f 131//131 251//251 253//253
f 134//134 254//254 252//252
f 131//131 253//253 255//255
f 134//134 256//256 254//254
f 131//131 255//255 257//257
f 134//134 258//258 256//256
