v -0.000000 -1.000000 -0.000000
v -0.000000 -0.923880 -0.382683
v -0.000000 -0.707107 -0.707107
v -0.000000 -0.382683 -0.923880
v -0.000000 0.000000 -1.000000
v -0.000000 0.382683 -0.923880
v -0.000000 0.707107 -0.707107
v -0.000000 0.923880 -0.382683
v -0.000000 1.000000 -0.000000
v 0.000000 0.923880 0.382683
v 0.000000 0.707107 0.707107
v 0.000000 0.382683 0.923880
v 0.000000 0.000000 1.000000
v -0.191342 -0.923880 -0.331414
v -0.353553 -0.707107 -0.612372
v -0.461940 -0.382683 -0.800103
v -0.500000 0.000000 -0.866025
v -0.461940 0.382683 -0.800103
v -0.353553 0.707107 -0.612372
v -0.191342 0.923880 -0.331414
v 0.191342 0.923880 0.331414
v 0.353553 0.707107 0.612372
v 0.461940 0.382683 0.800103
v 0.500000 0.000000 0.866025
v -0.331414 -0.923880 -0.191342
v -0.612372 -0.707107 -0.353553
v -0.800103 -0.382683 -0.461940
v -0.866025 0.000000 -0.500000
v -0.800103 0.382683 -0.461940
v -0.612372 0.707107 -0.353553
v -0.331414 0.923880 -0.191342
v 0.331414 0.923880 0.191342
v 0.612372 0.707107 0.353553
v 0.800103 0.382683 0.461940
v 0.866025 0.000000 0.500000
v -0.382683 -0.923880 -0.000000
v -0.707107 -0.707107 -0.000000
v -0.923880 -0.382683 -0.000000
v -1.000000 0.000000 -0.000000
v -0.923880 0.382683 -0.000000
v -0.707107 0.707107 -0.000000
v -0.382683 0.923880 -0.000000
v 0.382683 0.923880 0.000000
v 0.707107 0.707107 0.000000
v 0.923880 0.382683 0.000000
v 1.000000 0.000000 0.000000
v -0.331414 -0.923880 0.191342
v -0.612372 -0.707107 0.353553
v -0.800103 -0.382683 0.461940
v -0.866025 0.000000 0.500000
v -0.800103 0.382683 0.461940
v -0.612372 0.707107 0.353553
v -0.331414 0.923880 0.191342
v 0.331414 0.923880 -0.191342
v 0.612372 0.707107 -0.353553
v 0.800103 0.382683 -0.461940
v 0.866025 0.000000 -0.500000
v -0.191342 -0.923880 0.331414
v -0.353553 -0.707107 0.612372
v -0.461940 -0.382683 0.800103
v -0.500000 0.000000 0.866025
v -0.461940 0.382683 0.800103
v -0.353553 0.707107 0.612372
v -0.191342 0.923880 0.331414
v 0.191342 0.923880 -0.331414
v 0.353553 0.707107 -0.612372
v 0.461940 0.382683 -0.800103
v 0.500000 0.000000 -0.866025
v -0.000000 -0.923880 0.382683
v -0.000000 -0.707107 0.707107
v -0.000000 -0.382683 0.923880
v 0.191342 -0.923880 0.331414
v 0.353553 -0.707107 0.612372
v 0.461940 -0.382683 0.800103
v 0.331414 -0.923880 0.191342
v 0.612372 -0.707107 0.353553
v 0.800103 -0.382683 0.461940
v 0.382683 -0.923880 0.000000
v 0.707107 -0.707107 0.000000
v 0.923880 -0.382683 0.000000
v 0.331414 -0.923880 -0.191342
v 0.612372 -0.707107 -0.353553
v 0.800103 -0.382683 -0.461940
v 0.191342 -0.923880 -0.331414
v 0.353553 -0.707107 -0.612372
v 0.461940 -0.382683 -0.800103
vn -0.000000 -1.000000 0.000000
vn 0.030203 -0.907906 -0.418084
vn 0.012143 -0.707987 -0.706122
vn 0.006420 -0.383517 -0.923511
vn -0.000000 -0.000000 -1.000000
vn -0.006420 0.383517 -0.923511
vn -0.012143 0.707987 -0.706122
vn -0.030203 0.907906 -0.418084
vn 0.000000 1.000000 0.000000
vn 0.030203 0.907906 0.418084
vn 0.012143 0.707987 0.706121
vn 0.006420 0.383517 0.923511
vn -0.000000 -0.000000 1.000000
vn -0.182885 -0.907906 -0.377173
vn -0.342546 -0.707986 -0.617591
vn -0.456196 -0.383518 -0.802994
vn -0.500000 -0.000000 -0.866025
vn -0.467316 0.383518 -0.796574
vn -0.363577 0.707986 -0.605448
vn -0.235198 0.907906 -0.346971
vn 0.235198 0.907906 0.346971
vn 0.363577 0.707986 0.605448
vn 0.467316 0.383518 0.796574
vn 0.500000 -0.000000 0.866025
vn -0.346971 -0.907906 -0.235198
vn -0.605448 -0.707986 -0.363577
vn -0.796574 -0.383518 -0.467316
vn -0.866025 0.000000 -0.500000
vn -0.802994 0.383518 -0.456196
vn -0.617591 0.707986 -0.342546
vn -0.377173 0.907906 -0.182885
vn 0.377173 0.907906 0.182885
vn 0.617591 0.707986 0.342546
vn 0.802994 0.383518 0.456196
vn 0.866025 0.000000 0.500000
vn -0.418084 -0.907906 -0.030203
vn -0.706122 -0.707987 -0.012143
vn -0.923511 -0.383518 -0.006420
vn -1.000000 -0.000000 -0.000000
vn -0.923511 0.383517 0.006420
vn -0.706121 0.707987 0.012143
vn -0.418084 0.907906 0.030203
vn 0.418084 0.907906 -0.030203
vn 0.706121 0.707987 -0.012143
vn 0.923511 0.383517 -0.006420
vn 1.000000 -0.000000 0.000000
vn -0.377173 -0.907906 0.182885
vn -0.617591 -0.707986 0.342546
vn -0.802994 -0.383518 0.456196
vn -0.866025 -0.000000 0.500000
vn -0.796574 0.383518 0.467316
vn -0.605448 0.707986 0.363577
vn -0.346971 0.907906 0.235198
vn 0.346971 0.907906 -0.235198
vn 0.605448 0.707986 -0.363577
vn 0.796574 0.383518 -0.467316
vn 0.866025 -0.000000 -0.500000
vn -0.235198 -0.907906 0.346971
vn -0.363577 -0.707986 0.605448
vn -0.467316 -0.383518 0.796574
vn -0.500000 0.000000 0.866025
vn -0.456196 0.383518 0.802994
vn -0.342546 0.707986 0.617591
vn -0.182885 0.907906 0.377173
vn 0.182885 0.907906 -0.377173
vn 0.342546 0.707986 -0.617591
vn 0.456196 0.383518 -0.802994
vn 0.500000 0.000000 -0.866025
vn -0.030203 -0.907906 0.418084
vn -0.012143 -0.707987 0.706122
vn -0.006420 -0.383518 0.923511
vn 0.182885 -0.907906 0.377173
vn 0.342546 -0.707986 0.617591
vn 0.456196 -0.383518 0.802994
vn 0.346971 -0.907906 0.235198
vn 0.605448 -0.707986 0.363577
vn 0.796574 -0.383518 0.467316
vn 0.418084 -0.907906 0.030203
vn 0.706122 -0.707987 0.012143
vn 0.923511 -0.383518 0.006420
vn 0.377173 -0.907906 -0.182885
vn 0.617591 -0.707986 -0.342546
vn 0.802994 -0.383518 -0.456196
vn 0.235198 -0.907906 -0.346971
vn 0.363577 -0.707986 -0.605448
vn 0.467316 -0.383518 -0.796574
f 2//2 1//1 14//14
f 2//2 14//14 3//3
f 3//3 14//14 15//15
f 3//3 15//15 4//4
f 4//4 15//15 16//16
f 4//4 16//16 5//5
f 5//5 16//16 17//17
f 5//5 17//17 6//6
f 6//6 17//17 18//18
f 6//6 18//18 7//7
f 7//7 18//18 19//19
f 7//7 19//19 8//8
f 8//8 19//19 20//20
f 8//8 20//20 9//9
f 14//14 1//1 25//25
f 14//14 25//25 15//15
f 15//15 25//25 26//26
f 15//15 26//26 16//16
f 16//16 26//26 27//27
f 16//16 27//27 17//17
f 17//17 27//27 28//28
f 17//17 28//28 18//18
f 18//18 28//28 29//29
f 18//18 29//29 19//19
f 19//19 29//29 30//30
f 19//19 30//30 20//20
f 20//20 30//30 31//31
f 20//20 31//31 9//9
f 25//25 1//1 36//36
f 25//25 36//36 26//26
f 26//26 36//36 37//37
f 26//26 37//37 27//27
f 27//27 37//37 38//38
f 27//27 38//38 28//28
f 28//28 38//38 39//39
f 28//28 39//39 29//29
f 29//29 39//39 40//40
f 29//29 40//40 30//30
f 30//30 40//40 41//41
f 30//30 41//41 31//31
f 31//31 41//41 42//42
f 31//31 42//42 9//9
f 36//36 1//1 47//47
f 36//36 47//47 37//37
f 37//37 47//47 48//48
f 37//37 48//48 38//38
f 38//38 48//48 49//49
f 38//38 49//49 39//39
f 39//39 49//49 50//50
f 39//39 50//50 40//40
f 40//40 50//50 51//51
f 40//40 51//51 41//41
f 41//41 51//51 52//52
f 41//41 52//52 42//42
f 42//42 52//52 53//53
f 42//42 53//53 9//9
f 47//47 1//1 58//58
f 47//47 58//58 48//48
f 48//48 58//58 59//59
f 48//48 59//59 49//49
f 49//49 59//59 60//60
f 49//49 60//60 50//50
f 50//50 60//60 61//61
f 50//50 61//61 51//51
f 51//51 61//61 62//62
f 51//51 62//62 52//52
f 52//52 62//62 63//63
f 52//52 63//63 53//53
f 53//53 63//63 64//64
f 53//53 64//64 9//9
f 58//58 1//1 69//69
f 58//58 69//69 59//59
f 59//59 69//69 70//70
f 59//59 70//70 60//60
f 60//60 70//70 71//71
f 60//60 71//71 61//61
f 61//61 71//71 13//13
f 61//61 13//13 62//62
f 62//62 13//13 12//12
f 62//62 12//12 63//63
f 63//63 12//12 11//11
f 63//63 11//11 64//64
f 64//64 11//11 10//10
f 64//64 10//10 9//9
f 69//69 1//1 72//72
f 69//69 72//72 70//70
f 70//70 72//72 73//73
f 70//70 73//73 71//71
f 71//71 73//73 74//74
f 71//71 74//74 13//13
f 13//13 74//74 24//24
f 13//13 24//24 12//12
f 12//12 24//24 23//23
f 12//12 23//23 11//11
f 11//11 23//23 22//22
f 11//11 22//22 10//10
f 10//10 22//22 21//21
f 10//10 21//21 9//9
f 72//72 1//1 75//75
f 72//72 75//75 73//73
f 73//73 75//75 76//76
f 73//73 76//76 74//74
f 74//74 76//76 77//77
f 74//74 77//77 24//24
f 24//24 77//77 35//35
f 24//24 35//35 23//23
f 23//23 35//35 34//34
f 23//23 34//34 22//22
f 22//22 34//34 33//33
f 22//22 33//33 21//21
f 21//21 33//33 32//32
f 21//21 32//32 9//9
f 75//75 1//1 78//78
f 75//75 78//78 76//76
f 76//76 78//78 79//79
f 76//76 79//79 77//77
f 77//77 79//79 80//80
f 77//77 80//80 35//35
f 35//35 80//80 46//46
f 35//35 46//46 34//34
f 34//34 46//46 45//45
f 34//34 45//45 33//33
f 33//33 45//45 44//44
f 33//33 44//44 32//32
f 32//32 44//44 43//43
f 32//32 43//43 9//9
f 78//78 1//1 81//81
f 78//78 81//81 79//79
f 79//79 81//81 82//82
f 79//79 82//82 80//80
f 80//80 82//82 83//83
f 80//80 83//83 46//46
f 46//46 83//83 57//57
f 46//46 57//57 45//45
f 45//45 57//57 56//56
f 45//45 56//56 44//44
f 44//44 56//56 55//55
f 44//44 55//55 43//43
f 43//43 55//55 54//54
f 43//43 54//54 9//9
f 81//81 1//1 84//84
f 81//81 84//84 82//82
f 82//82 84//84 85//85
f 82//82 85//85 83//83
f 83//83 85//85 86//86
f 83//83 86//86 57//57
f 57//57 86//86 68//68
f 57//57 68//68 56//56
f 56//56 68//68 67//67
f 56//56 67//67 55//55
f 55//55 67//67 66//66
f 55//55 66//66 54//54
f 54//54 66//66 65//65
f 54//54 65//65 9//9
f 84//84 1//1 2//2
f 84//84 2//2 85//85
f 85//85 2//2 3//3
f 85//85 3//3 86//86
f 86//86 3//3 4//4
f 86//86 4//4 68//68
f 68//68 4//4 5//5
f 68//68 5//5 67//67
f 67//67 5//5 6//6
f 67//67 6//6 66//66
f 66//66 6//6 7//7
f 66//66 7//7 65//65
f 65//65 7//7 8//8
f 65//65 8//8 9//9
