v -0.000000 -1.000000 -0.000000
v -0.000000 0.000000 -1.000000
v -0.000000 1.000000 -0.000000
v 0.000000 0.000000 1.000000
v -0.866025 0.000000 0.500000
v 0.866025 0.000000 -0.500000
v 0.866025 0.000000 0.500000
v -0.866025 0.000000 -0.500000
vn 0.000000 -1.000000 0.000000
vn 0.000000 0.000000 -1.000000
vn 0.000000 1.000000 0.000000
vn NaN NaN NaN
vn -0.866025 0.000000 0.500000
vn NaN NaN NaN
vn 0.866025 0.000000 0.500000
vn NaN NaN NaN
f 2//2 1//1 5//5
f 2//2 5//5 3//3
f 5//5 1//1 7//7
f 5//5 7//7 3//3
f 7//7 1//1 2//2
f 7//7 2//2 3//3
