v -0.000000 0.000000 -0.750000
v -0.000000 -0.216506 -1.125000
v -0.000000 0.216506 -1.125000
v -0.000000 0.000000 -0.750000
v -0.649519 0.000000 0.375000
v -0.974279 -0.216506 0.562500
v -0.974279 0.216506 0.562500
v -0.649519 0.000000 0.375000
v 0.649519 0.000000 0.375000
v 0.974279 -0.216506 0.562500
v 0.974279 0.216506 0.562500
v 0.649519 0.000000 0.375000
v -0.000000 0.000000 -0.750000
v -0.000000 -0.216506 -1.125000
v -0.000000 0.216506 -1.125000
v -0.000000 0.000000 -0.750000
vn 0.000000 0.000000 1.000000
vn -0.000000 -0.866025 -0.500000
vn -0.000000 0.866025 -0.500000
vn 0.000000 0.000000 1.000000
vn 0.866025 0.000000 -0.500000
vn -0.433013 -0.866025 0.250000
vn -0.433013 0.866025 0.250000
vn 0.866025 0.000000 -0.500000
vn -0.866025 0.000000 -0.500000
vn 0.433013 -0.866025 0.250000
vn 0.433013 0.866025 0.250000
vn -0.866025 0.000000 -0.500000
vn 0.000000 0.000000 1.000000
vn -0.000000 -0.866025 -0.500000
vn -0.000000 0.866025 -0.500000
vn 0.000000 0.000000 1.000000
vt 0.000000 0.000000
vt 0.000000 0.333333
vt 0.000000 0.666667
vt 0.000000 1.000000
vt 0.333333 0.000000
vt 0.333333 0.333333
vt 0.333333 0.666667
vt 0.333333 1.000000
vt 0.666667 0.000000
vt 0.666667 0.333333
vt 0.666667 0.666667
vt 0.666667 1.000000
vt 1.000000 0.000000
vt 1.000000 0.333333
vt 1.000000 0.666667
vt 1.000000 1.000000
f 1/1/1 5/5/5 2/2/2
f 2/2/2 5/5/5 6/6/6
f 2/2/2 6/6/6 3/3/3
f 3/3/3 6/6/6 7/7/7
f 3/3/3 7/7/7 4/4/4
f 4/4/4 7/7/7 8/8/8
f 5/5/5 9/9/9 6/6/6
f 6/6/6 9/9/9 10/10/10
f 6/6/6 10/10/10 7/7/7
f 7/7/7 10/10/10 11/11/11
f 7/7/7 11/11/11 8/8/8
f 8/8/8 11/11/11 12/12/12
f 9/9/9 13/13/13 10/10/10
f 10/10/10 13/13/13 14/14/14
f 10/10/10 14/14/14 11/11/11
f 11/11/11 14/14/14 15/15/15
f 11/11/11 15/15/15 12/12/12
f 12/12/12 15/15/15 16/16/16
